<svg xmlns="http://www.w3.org/2000/svg" width="149.9" height="30" viewBox="0 0 149.9 30"><defs><style>.a{fill:#fff;}</style></defs><g transform="translate(-174 -32)"><path class="a" d="M225.1,54h-6.9v-.8l.9-.3a3.553,3.553,0,0,1,1-.2V41.3h-2.3l-1.3,3.4h-.8c-.1-.3-.1-.6-.2-1a5.283,5.283,0,0,1-.1-1.3c0-.4-.1-.9-.1-1.3V40H228v1.1c0,.4-.1.9-.1,1.3s-.1.9-.1,1.3a8.665,8.665,0,0,1-.2,1h-.8l-1.3-3.4h-2.3V52.7c.3.1.7.1,1,.2l.9.3V54Z"/><path class="a" d="M229.1,45.2c-.2-.1-.4-.1-.5-.2-.2-.1-.3-.2-.5-.3V44h5.3v.7a3.7,3.7,0,0,1-1.1.5l2,5,.3,1.3h0l.3-1.3,1.6-5a2.22,2.22,0,0,1-1.1-.5V44h3.9v.8a11.731,11.731,0,0,1-1.1.5l-3.3,8.8a8.222,8.222,0,0,1-1,2.1,4.879,4.879,0,0,1-1,1.3,6.071,6.071,0,0,1-1,.7,2.959,2.959,0,0,1-1,.2,2.181,2.181,0,0,1-.4-.5l-.3-.6c-.1-.2-.1-.4-.2-.6a1.268,1.268,0,0,1-.1-.6l.3-.5h2.4l.3-.6a4.053,4.053,0,0,0,.3-1Z"/><path class="a" d="M244.8,58h-5.5v-.8a11.214,11.214,0,0,1,1.3-.5V45.4l-1.3-.2v-.8a6.89,6.89,0,0,1,.8-.3c.3-.1.6-.1,1-.2a3.4,3.4,0,0,1,1-.1c.3,0,.6-.1.8-.1h.7V46h0a3.553,3.553,0,0,1,1.1-1.6,3.173,3.173,0,0,1,2-.6,4.146,4.146,0,0,1,1.6.3,2.73,2.73,0,0,1,1.2.9,4.771,4.771,0,0,1,.8,1.6,7.55,7.55,0,0,1,.3,2.3,5.867,5.867,0,0,1-.4,2.3,4.043,4.043,0,0,1-1,1.7,4.569,4.569,0,0,1-1.6,1.1,4.638,4.638,0,0,1-2.1.4,3.421,3.421,0,0,1-1.1-.1c-.3-.1-.5-.2-.8-.3v2.9a1.421,1.421,0,0,1,.6.2,4.875,4.875,0,0,0,.7.3V58Zm.7-12.6a1.656,1.656,0,0,0-1.2.5,2.677,2.677,0,0,0-.8,1.5v5.3a1.612,1.612,0,0,0,.7.4,2.483,2.483,0,0,0,.9.1,1.848,1.848,0,0,0,1.7-1.1,6.9,6.9,0,0,0,.5-3.2,5.668,5.668,0,0,0-.4-2.5A1.308,1.308,0,0,0,245.5,45.4Z"/><path class="a" d="M260.8,52.3a3.039,3.039,0,0,1-.5.7,3.49,3.49,0,0,1-.9.6,3.374,3.374,0,0,1-1.2.4,6.8,6.8,0,0,1-1.5.2,5.087,5.087,0,0,1-2.2-.4,3.553,3.553,0,0,1-1.6-1.1,5.372,5.372,0,0,1-1-1.6,7.316,7.316,0,0,1-.3-2.2,5.262,5.262,0,0,1,1.3-3.9,4.924,4.924,0,0,1,3.7-1.3,5.822,5.822,0,0,1,1.9.3,3.765,3.765,0,0,1,1.5.9,3.013,3.013,0,0,1,.8,1.7,6.945,6.945,0,0,1,0,2.5h-6.1a3.742,3.742,0,0,0,.8,2.5,2.869,2.869,0,0,0,2.3.9,7.844,7.844,0,0,0,1.4-.2,2.812,2.812,0,0,0,1.1-.5Zm-4.2-7.4a1.483,1.483,0,0,0-.7.1,1.205,1.205,0,0,0-.5.5,2.321,2.321,0,0,0-.4,1,6.959,6.959,0,0,0-.2,1.6H258a5.8,5.8,0,0,0-.2-2.4A1.206,1.206,0,0,0,256.6,44.9Z"/><path class="a" d="M265.8,54.2l-3.1-9c-.2-.1-.4-.1-.5-.2-.2-.1-.3-.2-.5-.3V44h5.1v.7l-.6.3a1.421,1.421,0,0,1-.6.2l1.4,5.1.3,1.5h0l.4-1.6,2.1-6.2,1-.1,2.3,6.3.4,1.6h0l.3-1.6,1.2-5.1a1.69,1.69,0,0,1-.5-.2l-.6-.3V44h3.9v.8a11.731,11.731,0,0,1-1.1.5l-2.8,8.8-1.9.2-1.7-4.9-.4-1.7h-.1l-.5,1.7-1.6,4.7Z"/><path class="a" d="M283.3,46.3a6.125,6.125,0,0,0-.6.4,3.49,3.49,0,0,0-.6.9v5.1a2.353,2.353,0,0,1,.8.2c.3.1.5.2.8.3V54h-5.8v-.8c.2-.1.5-.2.7-.3s.4-.1.6-.2V45.3l-1.3-.2v-.8a6.891,6.891,0,0,1,.8-.3c.3-.1.6-.1,1-.2a3.4,3.4,0,0,1,1-.1c.3,0,.6-.1.8-.1h.7v2.7h.1a4.053,4.053,0,0,1,.5-.9c.2-.3.5-.6.7-.9a2.361,2.361,0,0,1,.9-.6,1.8,1.8,0,0,1,1-.2,5.938,5.938,0,0,1,.4.8c.1.3.2.7.3,1v.8Z"/><path class="a" d="M292.2,54h-5.5v-.8l.6-.3a6.374,6.374,0,0,1,.7-.2V45.3l-1.3-.2v-.8a1.884,1.884,0,0,1,.8-.2,2.959,2.959,0,0,1,1-.2c.3-.1.7-.1,1-.2.3,0,.6-.1.8-.1h.7v9a6.374,6.374,0,0,1,.7.2l.6.3V54Zm-4.5-13.3a1.433,1.433,0,0,1,.5-1.1,2,2,0,0,1,2.4,0,1.46,1.46,0,0,1,0,2.2,2,2,0,0,1-2.4,0A1.433,1.433,0,0,1,287.7,40.7Z"/><path class="a" d="M292.9,44.5a4.594,4.594,0,0,1,1.6-.7V42.2a2.192,2.192,0,0,1,.8-.3c.4-.1.9-.3,1.4-.4h.7V44H300v1.3h-2.6v5.2a3.419,3.419,0,0,0,.3,1.7,1.1,1.1,0,0,0,1,.5h.8a1.884,1.884,0,0,0,.8-.2l.1.7c-.1.1-.3.2-.5.4a5.939,5.939,0,0,1-.8.4c-.3.1-.6.2-1,.3a4.1,4.1,0,0,1-1.1.1,2.226,2.226,0,0,1-1.9-.7,3.4,3.4,0,0,1-.6-2.2V45.4h-1.6v-.9Z"/><path class="a" d="M310.4,52.3a3.039,3.039,0,0,1-.5.7,3.49,3.49,0,0,1-.9.6,4.234,4.234,0,0,1-1.2.4,6.752,6.752,0,0,1-1.4.2,5.087,5.087,0,0,1-2.2-.4,3.553,3.553,0,0,1-1.6-1.1,5.373,5.373,0,0,1-1-1.6,7.315,7.315,0,0,1-.3-2.2,5.262,5.262,0,0,1,1.3-3.9,4.924,4.924,0,0,1,3.7-1.3,5.822,5.822,0,0,1,1.9.3,3.765,3.765,0,0,1,1.5.9,3.013,3.013,0,0,1,.8,1.7,6.945,6.945,0,0,1,0,2.5h-6.1a3.742,3.742,0,0,0,.8,2.5,2.869,2.869,0,0,0,2.3.9,7.844,7.844,0,0,0,1.4-.2,2.812,2.812,0,0,0,1.1-.5Zm-4.1-7.4a1.483,1.483,0,0,0-.7.1,1.2,1.2,0,0,0-.5.5,2.321,2.321,0,0,0-.4,1,6.958,6.958,0,0,0-.2,1.6h3.2a5.8,5.8,0,0,0-.2-2.4A1.206,1.206,0,0,0,306.3,44.9Z"/><path class="a" d="M317.3,46.3a6.125,6.125,0,0,0-.6.4,3.49,3.49,0,0,0-.6.9v5.1a2.353,2.353,0,0,1,.8.2c.3.1.5.2.8.3V54h-5.8v-.8c.2-.1.5-.2.7-.3s.4-.1.6-.2V45.3l-1.3-.2v-.8a6.891,6.891,0,0,1,.8-.3c.3-.1.6-.1,1-.2a3.4,3.4,0,0,1,1-.1c.3,0,.6-.1.8-.1h.7v2.7h.1a4.053,4.053,0,0,1,.5-.9c.2-.3.5-.6.7-.9a2.361,2.361,0,0,1,.9-.6,1.8,1.8,0,0,1,1-.2,5.938,5.938,0,0,1,.4.8c.1.3.2.7.3,1v.8Z"/><path class="a" d="M320.5,52.6a1.656,1.656,0,0,1,.5-1.2,2,2,0,0,1,2.4,0,1.69,1.69,0,0,1,0,2.4,2,2,0,0,1-2.4,0A1.457,1.457,0,0,1,320.5,52.6Z"/><path class="a" d="M179.9,32v8h1.5V33.4h16.8V40h1.5V32Zm-3.8,8.8a.751.751,0,0,0-.7.7v3.3H174V47h1.5v3.3a.684.684,0,0,0,.7.7h.9l-1.3,7.2a1.268,1.268,0,0,0,.1.6l2.2,2.9a.713.713,0,0,0,.6.3h21.9a.864.864,0,0,0,.6-.3l2.2-2.9a.661.661,0,0,0,.1-.6L202.2,51h.9a.684.684,0,0,0,.7-.7V47h1.5V44.8H204V41.5a.684.684,0,0,0-.7-.7Zm.8,1.4h25.6v7.3H176.9Zm1.7,8.8h22.2l1.2,6.6H177.4Zm2,.8a1.1,1.1,0,1,0,1.1,1.1,1.049,1.049,0,0,0-1.1-1.1Zm3.6,0a1.1,1.1,0,1,0,1.1,1.1,1.049,1.049,0,0,0-1.1-1.1Zm3.7,0a1.1,1.1,0,1,0,1.1,1.1,1.049,1.049,0,0,0-1.1-1.1Zm3.7,0a1.1,1.1,0,1,0,1.1,1.1,1.049,1.049,0,0,0-1.1-1.1Zm3.6,0a1.1,1.1,0,1,0,1.1,1.1,1.049,1.049,0,0,0-1.1-1.1Zm3.7,0a1.1,1.1,0,1,0,1.1,1.1,1.049,1.049,0,0,0-1.1-1.1Zm-18.3,2.9a1.1,1.1,0,1,0,1.1,1.1,1.11,1.11,0,0,0-1.1-1.1Zm3.6,0a1.1,1.1,0,1,0,1.1,1.1,1.049,1.049,0,0,0-1.1-1.1Zm3.7,0a1.1,1.1,0,1,0,1.1,1.1,1.11,1.11,0,0,0-1.1-1.1Zm3.7,0a1.1,1.1,0,1,0,1.1,1.1,1.11,1.11,0,0,0-1.1-1.1Zm3.6,0a1.1,1.1,0,1,0,1.1,1.1,1.11,1.11,0,0,0-1.1-1.1Zm3.7,0a1.1,1.1,0,1,0,1.1,1.1h0a1.11,1.11,0,0,0-1.1-1.1ZM178,59.1h23.4l-1.1,1.5H179.1Z"/></g></svg>